#N canvas 320 23 1280 1151 10;
#X obj 110 439 vsl 26 48 0 127 0 0 empty empty empty 0 -9 0 10 -262144
-1 -1 0 1;
#X floatatom 110 410 4 0 0 0 - - -, f 4;
#X obj 110 61 ctlin;
#X floatatom 110 83 5 0 0 0 - - -, f 5;
#X floatatom 150 83 5 0 0 0 - - -, f 5;
#X obj 110 102 swap;
#X obj 110 124 pack i i;
#X msg 538 107 \; pd midi-dialog 2 0 0 0 0 0 0 0 0 0 0 0 0 0 0 0 0
0 3 3;
#X obj 538 59 loadbang;
#X obj 538 81 delay 1000;
#X obj 518 59 bng 15 250 50 0 empty empty empty 17 7 0 10 -262144 -1
-1;
#X text 607 85 Controller: Nanokontrol2;
#X obj 60 232 / 127;
#X text 101 503 s0;
#X text 123 503 s1;
#X obj 60 254 sig~;
#X obj 60 276 outlet~;
#X obj 110 232 / 127;
#X obj 110 254 sig~;
#X obj 110 276 outlet~;
#X obj 160 232 / 127;
#X obj 160 254 sig~;
#X obj 160 276 outlet~;
#X obj 146 439 vsl 26 48 0 127 0 0 empty empty empty 0 -9 0 10 -262144
-1 -1 0 1;
#X floatatom 146 410 4 0 0 0 - - -, f 4;
#X obj 110 146 route 0 1 2 3 4 5 6 7 16 17 18 19 20 21 22 23 41 42
;
#X msg 1001 331 1 0 \, 0 1 1;
#X obj 1001 353 vline~;
#X obj 962 264 moses 1;
#X obj 1001 289 trigger b;
#X obj 1001 311 bng 15 250 50 0 empty empty empty 17 7 0 10 -262144
-1 -1;
#X obj 1001 375 outlet~;
#X msg 1081 331 1 0 \, 0 1 1;
#X obj 1081 353 vline~;
#X obj 1042 264 moses 1;
#X obj 1081 289 trigger b;
#X obj 1081 311 bng 15 250 50 0 empty empty empty 17 7 0 10 -262144
-1 -1;
#X obj 1081 375 outlet~;
#X obj 183 439 vsl 26 48 0 127 0 0 empty empty empty 0 -9 0 10 -262144
-1 -1 0 1;
#X floatatom 183 410 4 0 0 0 - - -, f 4;
#X obj 219 439 vsl 26 48 0 127 0 0 empty empty empty 0 -9 0 10 -262144
-1 -1 0 1;
#X floatatom 219 410 4 0 0 0 - - -, f 4;
#X obj 255 439 vsl 26 48 0 127 0 0 empty empty empty 0 -9 0 10 -262144
-1 -1 0 1;
#X floatatom 255 410 4 0 0 0 - - -, f 4;
#X obj 291 439 vsl 26 48 0 127 0 0 empty empty empty 0 -9 0 10 -262144
-1 -1 0 1;
#X floatatom 291 410 4 0 0 0 - - -, f 4;
#X obj 328 439 vsl 26 48 0 127 0 0 empty empty empty 0 -9 0 10 -262144
-1 -1 0 1;
#X floatatom 328 410 4 0 0 0 - - -, f 4;
#X obj 364 439 vsl 26 48 0 127 0 0 empty empty empty 0 -9 0 10 -262144
-1 -1 0 1;
#X floatatom 364 410 4 0 0 0 - - -, f 4;
#X text 420 403 nanoKontrol2;
#X obj 210 232 / 127;
#X obj 210 254 sig~;
#X obj 210 276 outlet~;
#X obj 260 232 / 127;
#X obj 260 254 sig~;
#X obj 260 276 outlet~;
#X obj 310 232 / 127;
#X obj 310 254 sig~;
#X obj 310 276 outlet~;
#X obj 360 232 / 127;
#X obj 360 254 sig~;
#X obj 360 276 outlet~;
#X obj 410 232 / 127;
#X obj 410 254 sig~;
#X obj 410 276 outlet~;
#X obj 480 262 / 127;
#X obj 480 284 sig~;
#X obj 480 306 outlet~;
#X obj 530 262 / 127;
#X obj 530 284 sig~;
#X obj 530 306 outlet~;
#X obj 580 262 / 127;
#X obj 580 284 sig~;
#X obj 580 306 outlet~;
#X obj 630 262 / 127;
#X obj 630 284 sig~;
#X obj 630 306 outlet~;
#X obj 680 262 / 127;
#X obj 680 284 sig~;
#X obj 680 306 outlet~;
#X obj 730 262 / 127;
#X obj 730 284 sig~;
#X obj 730 306 outlet~;
#X obj 780 262 / 127;
#X obj 780 284 sig~;
#X obj 780 306 outlet~;
#X obj 830 262 / 127;
#X obj 830 284 sig~;
#X obj 830 306 outlet~;
#X text 145 503 s2;
#X text 167 503 s3;
#X text 189 503 s4;
#X text 211 503 s5;
#X text 233 503 s6;
#X text 255 503 s7;
#X text 442 503 r7;
#X text 281 503 k0;
#X text 304 503 k1;
#X text 327 503 k2;
#X text 350 503 k3;
#X text 373 503 k4;
#X text 396 503 k5;
#X text 419 503 k6;
#X connect 2 0 3 0;
#X connect 2 1 4 0;
#X connect 3 0 5 0;
#X connect 4 0 5 1;
#X connect 5 0 6 0;
#X connect 5 1 6 1;
#X connect 6 0 25 0;
#X connect 8 0 9 0;
#X connect 9 0 7 0;
#X connect 10 0 7 0;
#X connect 12 0 15 0;
#X connect 15 0 16 0;
#X connect 17 0 18 0;
#X connect 18 0 19 0;
#X connect 20 0 21 0;
#X connect 21 0 22 0;
#X connect 25 0 12 0;
#X connect 25 0 0 0;
#X connect 25 1 17 0;
#X connect 25 1 23 0;
#X connect 25 2 20 0;
#X connect 25 2 38 0;
#X connect 25 3 51 0;
#X connect 25 3 40 0;
#X connect 25 4 54 0;
#X connect 25 4 42 0;
#X connect 25 5 57 0;
#X connect 25 5 44 0;
#X connect 25 6 60 0;
#X connect 25 6 46 0;
#X connect 25 7 63 0;
#X connect 25 7 48 0;
#X connect 25 8 66 0;
#X connect 25 8 1 0;
#X connect 25 9 69 0;
#X connect 25 9 24 0;
#X connect 25 10 72 0;
#X connect 25 10 39 0;
#X connect 25 11 75 0;
#X connect 25 11 41 0;
#X connect 25 12 78 0;
#X connect 25 12 43 0;
#X connect 25 13 81 0;
#X connect 25 13 45 0;
#X connect 25 14 84 0;
#X connect 25 14 47 0;
#X connect 25 15 87 0;
#X connect 25 15 49 0;
#X connect 25 16 28 0;
#X connect 25 17 34 0;
#X connect 26 0 27 0;
#X connect 27 0 31 0;
#X connect 28 1 29 0;
#X connect 29 0 30 0;
#X connect 30 0 26 0;
#X connect 32 0 33 0;
#X connect 33 0 37 0;
#X connect 34 1 35 0;
#X connect 35 0 36 0;
#X connect 36 0 32 0;
#X connect 51 0 52 0;
#X connect 52 0 53 0;
#X connect 54 0 55 0;
#X connect 55 0 56 0;
#X connect 57 0 58 0;
#X connect 58 0 59 0;
#X connect 60 0 61 0;
#X connect 61 0 62 0;
#X connect 63 0 64 0;
#X connect 64 0 65 0;
#X connect 66 0 67 0;
#X connect 67 0 68 0;
#X connect 69 0 70 0;
#X connect 70 0 71 0;
#X connect 72 0 73 0;
#X connect 73 0 74 0;
#X connect 75 0 76 0;
#X connect 76 0 77 0;
#X connect 78 0 79 0;
#X connect 79 0 80 0;
#X connect 81 0 82 0;
#X connect 82 0 83 0;
#X connect 84 0 85 0;
#X connect 85 0 86 0;
#X connect 87 0 88 0;
#X connect 88 0 89 0;
#X coords 0 -1 1 1 400 120 2 100 400;
