#N canvas 760 476 735 449 10;
#X obj 109 109 vsl 15 70 0 100 0 0 empty empty empty 0 -9 0 10 -262144
-1 -1 0 1;
#X floatatom 111 247 5 0 0 0 - - -, f 5;
#X obj 117 226 r knob0;
#X obj 111 331 outlet~;
#X floatatom 601 148 5 0 0 0 - - -, f 5;
#X obj 568 129 tgl 15 0 empty empty empty 17 7 0 10 -262144 -1 -1 0
1;
#X obj 111 266 / 100;
#X obj 111 289 line~ 12;
#X obj 150 109 vsl 15 70 0 100 0 0 empty empty empty 0 -9 0 10 -262144
-1 -1 0 1;
#X floatatom 170 247 5 0 0 0 - - -, f 5;
#X obj 170 331 outlet~;
#X obj 170 266 / 100;
#X obj 170 289 line~ 12;
#X obj 183 109 vsl 15 70 0 100 0 0 empty empty empty 0 -9 0 10 -262144
-1 -1 0 1;
#X floatatom 233 247 5 0 0 0 - - -, f 5;
#X obj 233 331 outlet~;
#X obj 233 266 / 100;
#X obj 233 289 line~ 12;
#X obj 222 109 vsl 15 70 0 100 0 0 empty empty empty 0 -9 0 10 -262144
-1 -1 0 1;
#X floatatom 292 247 5 0 0 0 - - -, f 5;
#X obj 292 331 outlet~;
#X obj 292 266 / 100;
#X obj 292 289 line~ 12;
#X text 222 185 K3;
#X text 183 185 K2;
#X text 150 185 K1;
#X text 109 185 K0;
#X obj 176 226 r knob1;
#X obj 239 226 r knob2;
#X obj 298 226 r knob3;
#X obj 262 109 vsl 15 70 0 100 0 0 empty empty empty 0 -9 0 10 -262144
-1 -1 0 1;
#X floatatom 352 247 5 0 0 0 - - -, f 5;
#X obj 352 331 outlet~;
#X obj 352 266 / 100;
#X obj 352 289 line~ 12;
#X text 262 185 K4;
#X obj 358 226 r knob4;
#X obj 302 109 vsl 15 70 0 100 0 0 empty empty empty 0 -9 0 10 -262144
-1 -1 0 1;
#X floatatom 412 247 5 0 0 0 - - -, f 5;
#X obj 412 331 outlet~;
#X obj 412 266 / 100;
#X obj 412 289 line~ 12;
#X text 302 185 K5;
#X obj 418 226 r knob5;
#X connect 0 0 1 0;
#X connect 1 0 6 0;
#X connect 2 0 1 0;
#X connect 5 0 4 0;
#X connect 6 0 7 0;
#X connect 7 0 3 0;
#X connect 8 0 9 0;
#X connect 9 0 11 0;
#X connect 11 0 12 0;
#X connect 12 0 10 0;
#X connect 13 0 14 0;
#X connect 14 0 16 0;
#X connect 16 0 17 0;
#X connect 17 0 15 0;
#X connect 18 0 19 0;
#X connect 19 0 21 0;
#X connect 21 0 22 0;
#X connect 22 0 20 0;
#X connect 27 0 9 0;
#X connect 28 0 14 0;
#X connect 29 0 19 0;
#X connect 30 0 31 0;
#X connect 31 0 33 0;
#X connect 33 0 34 0;
#X connect 34 0 32 0;
#X connect 36 0 31 0;
#X connect 37 0 38 0;
#X connect 38 0 40 0;
#X connect 40 0 41 0;
#X connect 41 0 39 0;
#X connect 43 0 38 0;
#X coords 0 -1 1 1 260 100 2 100 100;
